<svg id="Layer_1" data-name="Layer 1" xmlns="http://www.w3.org/2000/svg" viewBox="0 0 16 16"><title>casefile_16</title><rect x="1" width="4" height="16" rx="0.5" ry="0.5" fill="#407fb9"/><rect x="2" y="1" width="2" height="5" fill="#fff"/><path d="M3,13.67a0.33,0.33,0,1,1-.33.33A0.33,0.33,0,0,1,3,13.67M3,13a1,1,0,1,0,1,1,1,1,0,0,0-1-1H3Z" fill="#44535e"/><rect x="6" width="4" height="16" rx="0.5" ry="0.5" fill="#9da2a5"/><rect x="7" y="1" width="2" height="5" fill="#fff"/><path d="M8,13.67a0.33,0.33,0,1,1-.33.33A0.33,0.33,0,0,1,8,13.67M8,13a1,1,0,1,0,1,1,1,1,0,0,0-1-1H8Z" fill="#44535e"/><rect x="11" width="4" height="16" rx="0.5" ry="0.5" fill="#75ad15"/><rect x="12" y="1" width="2" height="5" fill="#fff"/><path d="M13,13.67a0.33,0.33,0,1,1-.33.33A0.33,0.33,0,0,1,13,13.67M13,13a1,1,0,1,0,1,1,1,1,0,0,0-1-1h0Z" fill="#44535e"/></svg>