<svg id="Layer_1" data-name="Layer 1" xmlns="http://www.w3.org/2000/svg" viewBox="0 0 32 32"><title>casefile_32</title><rect x="3" width="7" height="31" rx="1" ry="1" fill="#407fb9"/><rect x="12" width="7" height="31" rx="1" ry="1" fill="#9da2a5"/><rect x="21" width="7" height="31" rx="1" ry="1" fill="#75ad15"/><rect x="23" y="3" width="3" height="10" fill="#fff"/><rect x="14" y="3" width="3" height="10" fill="#fff"/><rect x="5" y="3" width="3" height="10" fill="#fff"/><path d="M6.5,27a0.5,0.5,0,1,1-.5.5A0.5,0.5,0,0,1,6.5,27m0-1A1.5,1.5,0,1,0,8,27.5,1.5,1.5,0,0,0,6.5,26h0Z" fill="#44535e"/><path d="M15.5,27a0.5,0.5,0,1,1-.5.5,0.5,0.5,0,0,1,.5-0.5m0-1A1.5,1.5,0,1,0,17,27.5,1.5,1.5,0,0,0,15.5,26h0Z" fill="#44535e"/><path d="M24.5,27a0.5,0.5,0,1,1-.5.5,0.5,0.5,0,0,1,.5-0.5m0-1A1.5,1.5,0,1,0,26,27.5,1.5,1.5,0,0,0,24.5,26h0Z" fill="#44535e"/></svg>