<?xml version="1.0" encoding="UTF-8"?>
<svg xmlns="http://www.w3.org/2000/svg" xmlns:xlink="http://www.w3.org/1999/xlink" width="32px" height="32px" viewBox="0 0 32 32" version="1.1">
<defs>
<linearGradient id="linear0" gradientUnits="userSpaceOnUse" x1="47.9005" y1="29.3081" x2="47.9005" y2="108.3868" gradientTransform="matrix(0.2449,-0.050275,0.050275,0.2449,-3.376525,2.711175)">
<stop offset="0.00794654" style="stop-color:rgb(100%,59.607843%,0%);stop-opacity:1;"/>
<stop offset="1" style="stop-color:rgb(93.72549%,42.352941%,0%);stop-opacity:1;"/>
</linearGradient>
<filter id="alpha" filterUnits="objectBoundingBox" x="0%" y="0%" width="100%" height="100%">
  <feColorMatrix type="matrix" in="SourceGraphic" values="0 0 0 0 1 0 0 0 0 1 0 0 0 0 1 0 0 0 1 0"/>
</filter>
<mask id="mask0">
  <g filter="url(#alpha)">
<rect x="0" y="0" width="32" height="32" style="fill:rgb(0%,0%,0%);fill-opacity:0.2;stroke:none;"/>
  </g>
</mask>
<clipPath id="clip1">
  <rect x="0" y="0" width="32" height="32"/>
</clipPath>
<g id="surface5" clip-path="url(#clip1)">
<path style=" stroke:none;fill-rule:nonzero;fill:rgb(25.882353%,25.882353%,25.882353%);fill-opacity:1;" d="M 18.265625 6.464844 L 21.929688 24.316406 C 21.789062 24.375 21.671875 24.472656 21.585938 24.601562 C 21.476562 24.765625 21.4375 24.96875 21.476562 25.164062 L 21.800781 26.746094 L 6.285156 29.929688 C 6.25 29.9375 6.210938 29.941406 6.175781 29.941406 C 5.953125 29.941406 5.761719 29.796875 5.722656 29.601562 L 5.246094 27.285156 L 2.351562 13.1875 L 1.757812 10.296875 C 1.710938 10.058594 1.882812 9.828125 2.144531 9.773438 L 18.265625 6.464844 M 18.851562 5.578125 L 1.996094 9.039062 C 1.328125 9.175781 0.890625 9.804688 1.023438 10.445312 L 1.621094 13.335938 L 4.515625 27.4375 L 4.988281 29.753906 C 5.105469 30.308594 5.609375 30.691406 6.175781 30.691406 C 6.261719 30.691406 6.351562 30.683594 6.4375 30.664062 L 22.691406 27.328125 L 22.214844 25.011719 L 22.816406 24.890625 Z M 18.851562 5.578125 "/>
</g>
<linearGradient id="linear1" gradientUnits="userSpaceOnUse" x1="13.417" y1="111.5104" x2="79.0293" y2="111.5104" gradientTransform="matrix(0.2449,-0.050275,0.050275,0.2449,-3.376525,2.711175)">
<stop offset="0.0102" style="stop-color:rgb(74.117647%,74.117647%,74.117647%);stop-opacity:1;"/>
<stop offset="0.9869" style="stop-color:rgb(96.078431%,96.078431%,96.078431%);stop-opacity:1;"/>
</linearGradient>
<clipPath id="clip2">
  <path d="M 0 8 L 7 8 L 7 28 L 0 28 Z M 0 8 "/>
</clipPath>
<clipPath id="clip3">
  <path d="M 23.378906 20.835938 L 7.808594 27.507812 C 7.046875 27.835938 6.164062 27.480469 5.839844 26.71875 L -0.742188 11.359375 C -1.070312 10.59375 -0.714844 9.714844 0.0429688 9.390625 L 15.617188 2.714844 Z M 23.378906 20.835938 "/>
</clipPath>
<linearGradient id="linear2" gradientUnits="userSpaceOnUse" x1="66.3842" y1="9.0964" x2="66.3842" y2="88.7335" gradientTransform="matrix(0.258525,0.025175,-0.024225,0.248825,1.0351,-1.574)">
<stop offset="0.00794654" style="stop-color:rgb(26.666667%,50.196078%,96.862745%);stop-opacity:1;"/>
<stop offset="1" style="stop-color:rgb(19.215686%,36.470588%,70.196078%);stop-opacity:1;"/>
</linearGradient>
<mask id="mask1">
  <g filter="url(#alpha)">
<rect x="0" y="0" width="32" height="32" style="fill:rgb(0%,0%,0%);fill-opacity:0.2;stroke:none;"/>
  </g>
</mask>
<clipPath id="clip4">
  <rect x="0" y="0" width="32" height="32"/>
</clipPath>
<g id="surface8" clip-path="url(#clip4)">
<path style=" stroke:none;fill-rule:nonzero;fill:rgb(25.882353%,25.882353%,25.882353%);fill-opacity:1;" d="M 9.960938 2.363281 C 9.976562 2.363281 9.996094 2.363281 10.011719 2.367188 L 26.421875 3.964844 L 24.644531 22.214844 C 24.496094 22.230469 24.351562 22.289062 24.234375 22.386719 C 24.074219 22.515625 23.976562 22.699219 23.957031 22.902344 L 23.800781 24.511719 L 8.003906 22.976562 C 7.875 22.960938 7.757812 22.902344 7.675781 22.808594 C 7.632812 22.757812 7.5625 22.648438 7.574219 22.503906 L 7.804688 20.136719 L 9.210938 5.707031 L 9.5 2.746094 C 9.519531 2.53125 9.71875 2.363281 9.960938 2.363281 M 9.960938 1.601562 C 9.332031 1.601562 8.796875 2.058594 8.738281 2.671875 L 8.449219 5.632812 L 7.046875 20.058594 L 6.816406 22.429688 C 6.75 23.085938 7.25 23.671875 7.929688 23.734375 L 24.488281 25.347656 L 24.71875 22.976562 L 25.332031 23.039062 L 27.257812 3.28125 L 10.085938 1.609375 C 10.042969 1.601562 10 1.601562 9.960938 1.601562 Z M 9.960938 1.601562 "/>
</g>
<linearGradient id="linear3" gradientUnits="userSpaceOnUse" x1="33.4145" y1="92.1348" x2="96.7377" y2="92.1348" gradientTransform="matrix(0.258525,0.025175,-0.024225,0.248825,1.0351,-1.574)">
<stop offset="0.0102" style="stop-color:rgb(74.117647%,74.117647%,74.117647%);stop-opacity:1;"/>
<stop offset="0.9869" style="stop-color:rgb(96.078431%,96.078431%,96.078431%);stop-opacity:1;"/>
</linearGradient>
<clipPath id="clip5">
  <path d="M 6 1 L 11 1 L 11 25 L 6 25 Z M 6 1 "/>
</clipPath>
<clipPath id="clip6">
  <path d="M 24.238281 24.675781 L 7.566406 21.398438 C 6.753906 21.238281 6.222656 20.449219 6.382812 19.636719 L 9.632812 3.101562 C 9.792969 2.289062 10.582031 1.761719 11.394531 1.917969 L 28.0625 5.199219 Z M 24.238281 24.675781 "/>
</clipPath>
<linearGradient id="linear4" gradientUnits="userSpaceOnUse" x1="85.6299" y1="32.1425" x2="85.6299" y2="110.0589" gradientTransform="matrix(0.249025,-0.02205,0.02205,0.249025,-1.413875,1.976525)">
<stop offset="0.00794654" style="stop-color:rgb(40%,73.333333%,41.568627%);stop-opacity:1;"/>
<stop offset="1" style="stop-color:rgb(18.039216%,49.019608%,19.607843%);stop-opacity:1;"/>
</linearGradient>
<mask id="mask2">
  <g filter="url(#alpha)">
<rect x="0" y="0" width="32" height="32" style="fill:rgb(0%,0%,0%);fill-opacity:0.2;stroke:none;"/>
  </g>
</mask>
<clipPath id="clip7">
  <rect x="0" y="0" width="32" height="32"/>
</clipPath>
<g id="surface11" clip-path="url(#clip7)">
<path style=" stroke:none;fill-rule:nonzero;fill:rgb(25.882353%,25.882353%,25.882353%);fill-opacity:1;" d="M 28.605469 8.089844 L 30.1875 25.960938 C 29.863281 26.066406 29.640625 26.386719 29.671875 26.742188 L 29.8125 28.316406 L 14.953125 29.632812 C 14.941406 29.632812 14.929688 29.636719 14.917969 29.636719 C 14.703125 29.636719 14.523438 29.46875 14.503906 29.253906 L 14.300781 26.933594 L 13.050781 12.804688 L 12.792969 9.90625 C 12.773438 9.679688 12.941406 9.476562 13.171875 9.457031 L 28.605469 8.089844 M 29.289062 7.277344 L 13.105469 8.710938 C 12.464844 8.765625 11.988281 9.332031 12.046875 9.972656 L 12.304688 12.871094 L 13.554688 26.996094 L 13.761719 29.320312 C 13.8125 29.925781 14.324219 30.382812 14.921875 30.382812 C 14.953125 30.382812 14.988281 30.378906 15.023438 30.378906 L 30.628906 28.996094 L 30.425781 26.671875 L 31.003906 26.621094 Z M 29.289062 7.277344 "/>
</g>
<linearGradient id="linear5" gradientUnits="userSpaceOnUse" x1="53.0684" y1="113.1366" x2="115.0234" y2="113.1366" gradientTransform="matrix(0.249025,-0.02205,0.02205,0.249025,-1.413875,1.976525)">
<stop offset="0.0102" style="stop-color:rgb(74.117647%,74.117647%,74.117647%);stop-opacity:1;"/>
<stop offset="0.9869" style="stop-color:rgb(96.078431%,96.078431%,96.078431%);stop-opacity:1;"/>
</linearGradient>
<clipPath id="clip8">
  <path d="M 11 7 L 16 7 L 16 28 L 11 28 Z M 11 7 "/>
</clipPath>
<clipPath id="clip9">
  <path d="M 31.546875 25.011719 L 15.882812 27.804688 C 15.066406 27.949219 14.289062 27.40625 14.140625 26.589844 L 11.257812 10.429688 C 11.109375 9.613281 11.65625 8.835938 12.46875 8.6875 L 28.132812 5.890625 Z M 31.546875 25.011719 "/>
</clipPath>
</defs>
<g id="surface1">
<path style=" stroke:none;fill-rule:nonzero;fill:rgb(25.882353%,25.882353%,25.882353%);fill-opacity:1;" d="M 22.683594 27.328125 L 6.691406 30.613281 C 5.878906 30.78125 5.085938 30.253906 4.921875 29.445312 L 1.679688 13.648438 C 1.511719 12.835938 2.039062 12.046875 2.847656 11.878906 L 18.839844 8.597656 Z M 22.683594 27.328125 "/>
<path style=" stroke:none;fill-rule:nonzero;fill:url(#linear0);" d="M 22.8125 24.890625 L 6.21875 28.296875 C 5.40625 28.460938 4.613281 27.9375 4.449219 27.128906 L 1.085938 10.753906 C 0.921875 9.941406 1.445312 9.148438 2.253906 8.984375 L 18.851562 5.578125 Z M 22.8125 24.890625 "/>
<use xlink:href="#surface5" mask="url(#mask0)"/>
<path style=" stroke:none;fill-rule:nonzero;fill:url(#linear1);" d="M 21.761719 26.914062 L 6.535156 30.039062 C 6.070312 30.136719 5.613281 29.832031 5.515625 29.371094 L 5.507812 29.320312 C 5.414062 28.855469 5.714844 28.398438 6.175781 28.300781 L 21.402344 25.175781 Z M 21.761719 26.914062 "/>
<g clip-path="url(#clip2)" clip-rule="nonzero">
<g clip-path="url(#clip3)" clip-rule="nonzero">
<path style=" stroke:none;fill-rule:nonzero;fill:rgb(25.882353%,25.882353%,25.882353%);fill-opacity:1;" d="M -0.449219 8.734375 L 1.96875 8.238281 L 6.722656 31.410156 L 4.308594 31.90625 Z M -0.449219 8.734375 "/>
</g>
</g>
<path style=" stroke:none;fill-rule:nonzero;fill:rgb(25.882353%,25.882353%,25.882353%);fill-opacity:1;" d="M 24.488281 25.351562 L 8.191406 23.761719 C 7.363281 23.683594 6.761719 22.949219 6.84375 22.125 L 8.417969 5.941406 C 8.496094 5.117188 9.234375 4.515625 10.054688 4.59375 L 26.351562 6.183594 Z M 24.488281 25.351562 "/>
<path style=" stroke:none;fill-rule:nonzero;fill:url(#linear2);" d="M 25.261719 22.964844 L 8.351562 21.316406 C 7.523438 21.238281 6.921875 20.503906 7.003906 19.679688 L 8.636719 2.90625 C 8.714844 2.082031 9.449219 1.480469 10.273438 1.558594 L 27.183594 3.207031 Z M 25.261719 22.964844 "/>
<use xlink:href="#surface8" mask="url(#mask1)"/>
<path style=" stroke:none;fill-rule:nonzero;fill:url(#linear3);" d="M 23.726562 24.675781 L 8.21875 23.164062 C 7.742188 23.117188 7.390625 22.691406 7.4375 22.21875 L 7.441406 22.167969 C 7.488281 21.691406 7.914062 21.34375 8.390625 21.386719 L 23.898438 22.898438 Z M 23.726562 24.675781 "/>
<g clip-path="url(#clip5)" clip-rule="nonzero">
<g clip-path="url(#clip6)" clip-rule="nonzero">
<path style=" stroke:none;fill-rule:nonzero;fill:rgb(25.882353%,25.882353%,25.882353%);fill-opacity:1;" d="M 7.832031 0.589844 L 10.296875 0.828125 L 7.988281 24.539062 L 5.523438 24.300781 Z M 7.832031 0.589844 "/>
</g>
</g>
<path style=" stroke:none;fill-rule:nonzero;fill:rgb(25.882353%,25.882353%,25.882353%);fill-opacity:1;" d="M 30.628906 28.996094 L 15.355469 30.351562 C 14.53125 30.421875 13.800781 29.8125 13.726562 28.988281 L 12.328125 13.203125 C 12.257812 12.378906 12.867188 11.652344 13.691406 11.578125 L 28.964844 10.226562 Z M 30.628906 28.996094 "/>
<path style=" stroke:none;fill-rule:nonzero;fill:url(#linear4);" d="M 31 26.621094 L 15.148438 28.023438 C 14.324219 28.097656 13.597656 27.488281 13.523438 26.664062 L 12.074219 10.308594 C 12.003906 9.484375 12.613281 8.753906 13.4375 8.679688 L 29.289062 7.277344 Z M 31 26.621094 "/>
<use xlink:href="#surface11" mask="url(#mask2)"/>
<path style=" stroke:none;fill-rule:nonzero;fill:url(#linear5);" d="M 29.800781 28.484375 L 15.171875 29.78125 C 14.734375 29.820312 14.34375 29.492188 14.300781 29.050781 L 14.289062 28.90625 C 14.25 28.46875 14.578125 28.078125 15.015625 28.039062 L 29.648438 26.742188 Z M 29.800781 28.484375 "/>
<g clip-path="url(#clip8)" clip-rule="nonzero">
<g clip-path="url(#clip9)" clip-rule="nonzero">
<path style=" stroke:none;fill-rule:nonzero;fill:rgb(25.882353%,25.882353%,25.882353%);fill-opacity:1;" d="M 10.839844 8.128906 L 13.160156 7.925781 L 15.214844 31.140625 L 12.894531 31.347656 Z M 10.839844 8.128906 "/>
</g>
</g>
</g>
</svg>
