<?xml version="1.0" encoding="UTF-8"?>
<svg xmlns="http://www.w3.org/2000/svg" xmlns:xlink="http://www.w3.org/1999/xlink" width="32px" height="32px" viewBox="0 0 32 32" version="1.1">
<defs>
<filter id="alpha" filterUnits="objectBoundingBox" x="0%" y="0%" width="100%" height="100%">
  <feColorMatrix type="matrix" in="SourceGraphic" values="0 0 0 0 1 0 0 0 0 1 0 0 0 0 1 0 0 0 1 0"/>
</filter>
<mask id="mask0">
  <g filter="url(#alpha)">
<rect x="0" y="0" width="32" height="32" style="fill:rgb(0%,0%,0%);fill-opacity:0.466667;stroke:none;"/>
  </g>
</mask>
<mask id="mask1">
  <g filter="url(#alpha)">
<rect x="0" y="0" width="32" height="32" style="fill:rgb(0%,0%,0%);fill-opacity:0.345098;stroke:none;"/>
  </g>
</mask>
<clipPath id="clip2">
  <rect x="0" y="0" width="32" height="32"/>
</clipPath>
<g id="surface6" clip-path="url(#clip2)">
<path style=" stroke:none;fill-rule:evenodd;fill:rgb(0%,0%,0%);fill-opacity:1;" d="M 18.597656 5.207031 C 13.664062 8.628906 8.730469 12.046875 3.800781 15.472656 C 6.363281 19.171875 8.925781 22.871094 11.496094 26.566406 C 16.480469 23.105469 21.472656 19.652344 26.457031 16.183594 C 26.699219 14.269531 27.371094 12.25 27.355469 10.394531 C 26.265625 9 25.417969 7.238281 24.183594 6.074219 C 22.339844 5.847656 20.375 5.175781 18.59375 5.207031 Z M 23.425781 9.292969 C 24.539062 9.203125 24.359375 11.125 23.253906 10.761719 C 22.453125 10.554688 22.597656 9.324219 23.425781 9.292969 Z M 23.425781 9.292969 "/>
</g>
<mask id="mask2">
  <g filter="url(#alpha)">
<rect x="0" y="0" width="32" height="32" style="fill:rgb(0%,0%,0%);fill-opacity:0.345098;stroke:none;"/>
  </g>
</mask>
<clipPath id="clip3">
  <rect x="0" y="0" width="32" height="32"/>
</clipPath>
<g id="surface9" clip-path="url(#clip3)">
<path style=" stroke:none;fill-rule:evenodd;fill:rgb(0%,0%,0%);fill-opacity:1;" d="M 18.679688 5.519531 C 13.859375 8.863281 9.039062 12.203125 4.21875 15.550781 C 6.667969 19.082031 9.121094 22.613281 11.570312 26.144531 C 16.4375 22.765625 21.3125 19.394531 26.171875 16.011719 C 26.429688 14.125 27.035156 12.199219 27.039062 10.480469 C 25.976562 9.09375 25.140625 7.441406 24.023438 6.355469 C 22.199219 6.113281 20.328125 5.511719 18.679688 5.519531 Z M 23.398438 8.988281 C 23.402344 8.988281 23.40625 8.988281 23.40625 8.988281 C 23.769531 8.960938 24.089844 9.121094 24.265625 9.355469 C 24.445312 9.59375 24.5 9.882812 24.46875 10.160156 C 24.441406 10.4375 24.328125 10.71875 24.09375 10.910156 C 23.867188 11.097656 23.523438 11.160156 23.171875 11.050781 L 23.171875 11.058594 C 23.167969 11.058594 23.164062 11.050781 23.15625 11.050781 C 22.625 10.902344 22.371094 10.378906 22.421875 9.925781 C 22.476562 9.46875 22.84375 9.015625 23.398438 8.988281 Z M 23.398438 8.988281 "/>
</g>
<mask id="mask3">
  <g filter="url(#alpha)">
<rect x="0" y="0" width="32" height="32" style="fill:rgb(0%,0%,0%);fill-opacity:0.345098;stroke:none;"/>
  </g>
</mask>
<clipPath id="clip4">
  <rect x="0" y="0" width="32" height="32"/>
</clipPath>
<g id="surface12" clip-path="url(#clip4)">
<path style=" stroke:none;fill-rule:evenodd;fill:rgb(0%,0%,0%);fill-opacity:1;" d="M 18.742188 5.722656 C 14 9.015625 9.253906 12.304688 4.507812 15.597656 C 6.878906 19.015625 9.246094 22.4375 11.617188 25.855469 C 16.410156 22.53125 21.207031 19.214844 25.992188 15.886719 C 26.257812 14.027344 26.820312 12.171875 26.835938 10.542969 C 25.789062 9.160156 24.964844 7.578125 23.914062 6.542969 C 22.113281 6.292969 20.300781 5.730469 18.742188 5.722656 Z M 23.382812 8.785156 C 23.390625 8.785156 23.394531 8.785156 23.398438 8.785156 C 23.816406 8.757812 24.214844 8.945312 24.429688 9.230469 C 24.648438 9.519531 24.714844 9.859375 24.679688 10.183594 C 24.648438 10.503906 24.511719 10.832031 24.226562 11.066406 C 23.949219 11.292969 23.523438 11.363281 23.125 11.246094 L 23.125 11.253906 C 23.121094 11.25 23.117188 11.246094 23.109375 11.246094 C 23.105469 11.242188 23.101562 11.246094 23.09375 11.246094 L 23.09375 11.238281 C 22.472656 11.054688 22.15625 10.433594 22.21875 9.902344 C 22.285156 9.363281 22.726562 8.820312 23.382812 8.785156 Z M 23.382812 8.785156 "/>
</g>
<clipPath id="clip1">
  <rect x="0" y="0" width="32" height="32"/>
</clipPath>
<g id="surface14" clip-path="url(#clip1)">
<use xlink:href="#surface6" mask="url(#mask1)"/>
<use xlink:href="#surface9" mask="url(#mask2)"/>
<use xlink:href="#surface12" mask="url(#mask3)"/>
</g>
<linearGradient id="linear0" gradientUnits="userSpaceOnUse" x1="81.494" y1="215.68" x2="189.68" y2="137.72" gradientTransform="matrix(0.25,0,0,0.25,-10.881525,-30.9733)">
<stop offset="0" style="stop-color:rgb(100%,83.137255%,16.470588%);stop-opacity:1;"/>
<stop offset="1" style="stop-color:rgb(100%,96.470588%,83.529412%);stop-opacity:1;"/>
</linearGradient>
<linearGradient id="linear1" gradientUnits="userSpaceOnUse" x1="145.49" y1="145.56" x2="159.87" y2="166.39" gradientTransform="matrix(0.25,0,0,0.25,-10.881525,-30.9733)">
<stop offset="0" style="stop-color:rgb(100%,90.196078%,83.529412%);stop-opacity:1;"/>
<stop offset="1" style="stop-color:rgb(16.862745%,6.666667%,0%);stop-opacity:1;"/>
</linearGradient>
</defs>
<g id="surface1">
<use xlink:href="#surface14" mask="url(#mask0)"/>
<path style=" stroke:none;fill-rule:evenodd;fill:url(#linear0);" d="M 24.175781 11.074219 C 23.609375 11.464844 22.828125 11.324219 22.433594 10.757812 C 22.042969 10.191406 22.183594 9.410156 22.75 9.019531 C 23.316406 8.625 24.097656 8.765625 24.488281 9.332031 C 24.882812 9.898438 24.742188 10.679688 24.175781 11.074219 Z M 18.875 5.621094 L 24.089844 6.566406 L 26.941406 10.675781 L 25.996094 15.894531 L 11.617188 25.867188 L 4.492188 15.597656 Z M 18.875 5.621094 "/>
<path style=" stroke:none;fill-rule:nonzero;fill:url(#linear1);" d="M 28.445312 5.433594 C 28.171875 5.476562 27.835938 5.609375 27.445312 5.808594 C 26.667969 6.203125 25.6875 6.847656 24.734375 7.488281 L 24.875 7.699219 C 25.824219 7.058594 26.800781 6.417969 27.554688 6.035156 C 27.933594 5.839844 28.261719 5.710938 28.488281 5.675781 C 28.597656 5.65625 28.679688 5.664062 28.730469 5.683594 C 28.777344 5.703125 28.804688 5.722656 28.824219 5.785156 C 28.84375 5.851562 28.824219 5.992188 28.730469 6.175781 C 28.632812 6.355469 28.472656 6.570312 28.265625 6.808594 C 27.855469 7.28125 27.257812 7.820312 26.621094 8.316406 C 25.980469 8.808594 25.292969 9.253906 24.714844 9.542969 C 24.421875 9.6875 24.15625 9.789062 23.9375 9.839844 C 23.789062 9.875 23.703125 9.851562 23.609375 9.839844 C 23.75 9.53125 23.933594 9.21875 24.042969 8.933594 L 23.808594 8.847656 C 23.695312 9.140625 23.453125 9.515625 23.300781 9.910156 L 23.261719 10.011719 L 23.363281 10.066406 C 23.539062 10.152344 23.75 10.144531 23.996094 10.089844 C 24.238281 10.03125 24.519531 9.917969 24.824219 9.769531 C 25.425781 9.46875 26.117188 9.011719 26.769531 8.511719 C 27.417969 8.007812 28.027344 7.460938 28.457031 6.972656 C 28.667969 6.726562 28.835938 6.5 28.949219 6.292969 C 29.058594 6.082031 29.121094 5.890625 29.066406 5.714844 C 29.027344 5.59375 28.933594 5.492188 28.824219 5.449219 C 28.710938 5.40625 28.585938 5.410156 28.449219 5.433594 Z M 28.445312 5.433594 "/>
</g>
</svg>
